# xmcd
#
# Track frame offsets:
#	150
#	20549
#	43014
#	61644
#	78285
#	96469
#	113824
#	132670
#	151607
#	169046
#
# Disc length: 2504
#
# Revision: 2
# Processed by: cddbd v1.5.1PL0 Copyright (c) Steve Scherf et al.
# Submitted via: audiograbber 1.80
# Normalized: r1:TSWAP
#
DISCID=7609c60a
DTITLE=Vários Artistas - Metropolis
DYEAR=1900
DGENRE=
TTITLE0=Freddie Mercury - Love Kills
TTITLE1=Pat Benatar - Here's My Heart
TTITLE2=Jon Anderson - Cage Of Freedom
TTITLE3=Cicle V - Blood From A Stone
TTITLE4=Giorgio Moroder - The Legend Of Babel
TTITLE5=Bonnie Tyler - Here She Comes
TTITLE6=Loverboy - Destruction
TTITLE7=Billy Squier - On Your Own
TTITLE8=Adam Ant - What's Going On
TTITLE9=Giorgio Moroder - Machines
EXTD=EBM-Informática
EXTT0=
EXTT1=
EXTT2=
EXTT3=
EXTT4=
EXTT5=
EXTT6=
EXTT7=
EXTT8=
EXTT9=
PLAYORDER=
